<svg xmlns="http://www.w3.org/2000/svg" viewBox="0 0 512 640" x="0px" y="0px"><g><path d="M489.34,149.69a44.514,44.514,0,0,0-26.88-15.03L344.62,116.05A4.205,4.205,0,0,0,344,116H276.02l-.02-8.4A20.035,20.035,0,0,0,292,88V66.45a24.407,24.407,0,0,0,16-23.03V32a4,4,0,0,0-4-4H285.78a21.61,21.61,0,0,1-9.28-2.11l-6.27-3A29.5,29.5,0,0,0,228,49.49V76a16,16,0,0,0,8,13.85V116H168a4.205,4.205,0,0,0-.62.05L49.54,134.66a44.451,44.451,0,0,0-35.97,55.62L59.03,356.96a7.989,7.989,0,0,0,10.24,5.5l17.24-5.75A7.977,7.977,0,0,0,92,349.12V326.38l3.59,3.27a9.083,9.083,0,0,0,2.98,1.79c.38.31.77.63,1.16.93A110.99,110.99,0,0,0,164,355.92V488a4,4,0,0,0,4,4h80a4,4,0,0,0,4-4V396h8v92a4,4,0,0,0,4,4h80a4,4,0,0,0,4-4V355.91a110.612,110.612,0,0,0,65.38-24.45,9.02,9.02,0,0,0,3.03-1.81l3.59-3.27v22.74a7.981,7.981,0,0,0,5.48,7.59l17.24,5.74a8.047,8.047,0,0,0,6.31-.53,8.008,8.008,0,0,0,3.94-4.95l45.46-166.68a44.472,44.472,0,0,0-9.09-40.6ZM244,68a7.9,7.9,0,0,1,5.59,2.28,4.019,4.019,0,0,0,6.09-.55,23.97,23.97,0,0,0,3.72-8.38l16.22,5.4a24.239,24.239,0,0,0,7.64,1.27c.24,0,.49-.01.74-.02V88a12.01,12.01,0,0,1-12,12,28.007,28.007,0,0,1-14-3.74,4,4,0,1,0-4,6.92,35.787,35.787,0,0,0,14,4.58l.02,10.58-12.02,12-12-12V87.31a3.989,3.989,0,0,0-2.67-3.77A8,8,0,0,1,244,68ZM102.39,323.61a.927.927,0,0,1-.76.37.916.916,0,0,1-.66-.25l-10.28-9.36A4,4,0,0,0,84,317.33v31.79l-17.25,5.75L21.29,188.17a36.442,36.442,0,0,1,29.49-45.61l32.13-5.07,8.2,39.27-19.77,3.29a4,4,0,0,0-3.22,4.92l34.45,137.81A.9.9,0,0,1,102.39,323.61ZM164,172.72V309.29l-4.24,1.7a102.54,102.54,0,0,1-50.24,6.59L76.93,187.23Zm1.76,175.23a102.919,102.919,0,0,1-57.36-19.08c.1-.11.2-.21.29-.33a8.656,8.656,0,0,0,1.49-2.83,110.684,110.684,0,0,0,52.55-7.29l6.04-2.42h16.16Zm121.82-31.83-28.19,45.09a4,4,0,0,1-6.78,0l-28.19-45.09a4.006,4.006,0,0,1-.59-2.43l.45-5.69H172V168a4,4,0,0,0-4.66-3.95L99,175.44l-8.18-39.2L168.31,124h70.03l10.91,10.9-24.46,12.23-13.96-13.96a4,4,0,0,0-5.66,5.66l16,16a4,4,0,0,0,4.62.75l12.42-6.21,5.71,11.42L237.04,248l-4.74,60-.39,5L256,351.55,280.09,313l-.39-5-4.74-60-6.89-87.21,5.68-11.45,12.46,6.24A4.052,4.052,0,0,0,288,156a3.989,3.989,0,0,0,2.83-1.17l16-16a4,4,0,0,0-5.66-5.66l-13.96,13.96-24.45-12.22L273.68,124h70.01l77.49,12.24L413,175.44l-68.34-11.39A4,4,0,0,0,340,168V308H287.72l.45,5.69A4.006,4.006,0,0,1,287.58,316.12ZM435.07,187.23,402.48,317.59a102.661,102.661,0,0,1-50.24-6.6l-4.24-1.7V172.72ZM346.24,347.95,327.07,316h16.16l6.04,2.42a109.765,109.765,0,0,0,52.54,7.28,8.926,8.926,0,0,0,1.5,2.84c.09.12.19.22.28.32A102.591,102.591,0,0,1,346.24,347.95ZM490.71,188.18,445.26,354.87,428,349.12V317.33a4,4,0,0,0-6.69-2.96l-10.28,9.36a1,1,0,0,1-.66.25.927.927,0,0,1-.76-.37.9.9,0,0,1-.18-.83l34.45-137.81a4,4,0,0,0-3.22-4.92l-19.77-3.29,8.2-39.27,32.13,5.07a36.452,36.452,0,0,1,29.49,45.62Z"/><path d="M125.171,373.171l-8,8a4,4,0,0,0,5.658,5.658l8-8a4,4,0,0,0-5.658-5.658Z"/><path d="M144,376a4,4,0,0,0-4,4v12a4,4,0,0,0,8,0V380A4,4,0,0,0,144,376Z"/><path d="M124,360a4,4,0,0,0-4-4H108a4,4,0,0,0,0,8h12A4,4,0,0,0,124,360Z"/><path d="M386.829,381.171a4,4,0,0,0-5.658,5.658l8,8a4,4,0,0,0,5.658-5.658Z"/><path d="M368,384a4,4,0,0,0-4,4v12a4,4,0,0,0,8,0V388A4,4,0,0,0,368,384Z"/><path d="M404,364H392a4,4,0,0,0,0,8h12a4,4,0,0,0,0-8Z"/></g><text x="0" y="527" fill="#000000" font-size="5px" font-weight="bold" font-family="'Helvetica Neue', Helvetica, Arial-Unicode, Arial, Sans-serif">Created by Chattapat</text><text x="0" y="532" fill="#000000" font-size="5px" font-weight="bold" font-family="'Helvetica Neue', Helvetica, Arial-Unicode, Arial, Sans-serif">from the Noun Project</text></svg>